# xmcd
#
# Track frame offsets: 
#        150
#        19789
#        38100
#        55056
#        71005
#        87943
#        106782
#        124129
#        144167
#        161953
#        180510
#
# Disc length: 2670 seconds
#
# Revision: 0
# Processed by: cddbd v1.5.2PL0 Copyright (c) Steve Scherf et al.
# Submitted via: ExactAudioCopy v0.95b4
#
DISCID=8c0a6c0b
DTITLE=The Gougers - A Long Day For The Weathervane
DYEAR=2007
DGENRE=Country
TTITLE0=Manheim Station
TTITLE1=Rosaline
TTITLE2=Oldcrow\\Scarecrow
TTITLE3=Everybody Knows
TTITLE4=Riding in a Lincoln Continental with Sylvia Plath
TTITLE5=Michael
TTITLE6=John Henry
TTITLE7=It'll Get Better
TTITLE8=Sleeping Pills
TTITLE9=Baby
TTITLE10=Dedend
EXTD=
EXTT0=
EXTT1=
EXTT2=
EXTT3=
EXTT4=
EXTT5=
EXTT6=
EXTT7=
EXTT8=
EXTT9=
EXTT10=
PLAYORDER=
